<svg xmlns:rdf="http://www.w3.org/1999/02/22-rdf-syntax-ns#" xmlns="http://www.w3.org/2000/svg" height="125" width="125" version="1.1" xmlns:cc="http://creativecommons.org/ns#" xmlns:xlink="http://www.w3.org/1999/xlink" viewBox="0 0 125 125" xmlns:dc="http://purl.org/dc/elements/1.1/">
<defs>
<path id="a" stroke-width="2" fill="none" d="m0 90h4m0-5h-4m4-4h-4m4 13h-4m21-4h4m0-5h-4m4-4h-4m4 13h-4m-11 2v4m5 0v-4m4 4v-4m-13 4v-4m4-21v4m5 0v-4m4 4v-4m-13 4v-4"/>
<path id="c" fill-rule="evenodd" d="m7 86v3h3l1.5-1.5-1.5-1.5zm11 0v3h-3l-1.5-1.5 1.5-1.5zm-7 7h3v-3l-1.5-1.5-1.5 1.5zm0-11h3v3l-1.5 1.5-1.5-1.5zm-6-2h15v15h-15z"/>
<path id="g" fill-rule="evenodd" d="m34 81-3 3h2v5h-1v4h4v-1h5v2l3-3-3-3v2h-5v-1h-1v-5h2zm-4-1h15v15h-15z"/>
<path id="i" fill-rule="evenodd" d="m57.329 88.694 3.9775 3.9775-0.39775 0.39775h-3.9775v-3.9775zm5.5685-2.3865 0.7955 0.7955-3.182 3.182-0.7955-0.7955zm1.591 1.591 0.79549 0.7955-3.182 3.182-0.7955-0.79549zm-3.182-3.182 0.7955 0.7955-3.182 3.182-0.7955-0.7955zm2.7842-2.7842 3.9775 3.9775-1.9887 1.9887-3.9775-3.9775zm-9.091-1.933h15v15h-15z"/>
<path id="j" stroke-width="2" fill="none" d="m1 66.5 2 2.5 4-5m-6-7.5 2 2.5 4-5m16 16h-15m15-5h-15m15-5h-15m15-5h-15"/>
<path id="k" d="m1 10h23v5h-23zm0 9h23v5h-23zm0-18h23v5h-23z"/>
<filter id="l" style="color-interpolation-filters:sRGB" height="1.1" width="1.1" y="-0.05" x="-0.05">
<feGaussianBlur stdDeviation="0.3"/>
</filter>
</defs>
<circle cy="62.5" cx="87.5" r="11.5" fill="#e4c51c"/>
<path fill="#f9ea9b" d="m95.787 68.229c-0.06215-0.2213-0.05793-0.37613-0.15748-0.69467-0.2623-0.8386-0.40386-1.4332-0.5586-2.3776-0.11348-0.6934-0.2376-1.3182-0.27572-1.3893-0.0704-0.13145-0.77851-0.74536-1.6507-1.4287-0.41917-0.32868-0.4965-0.42159-0.6123-0.73405-0.07315-0.19613-0.19752-0.41178-0.27572-0.47265-0.2171-0.17178-0.15968-0.56467 0.12173-0.83789 0.19635-0.19032 0.21127-0.24046 0.21127-0.58724 0-0.36194-0.0092-0.38506-0.26497-0.63021-0.14667-0.14067-0.36263-0.43615-0.48341-0.65527-0.28717-0.52212-0.77816-1.0144-1.2353-1.2389-0.49817-0.24482-1.2111-0.25142-1.6865-0.02149-0.47263 0.22871-0.92462 0.72892-1.221 1.3499-0.13952 0.29225-0.28541 0.53354-0.32226 0.53354-0.03667 0-0.15052 0.05755-0.25065 0.1289-0.1705 0.12137-0.1826 0.15732-0.1826 0.555 0 0.3524 0.02328 0.44534 0.13255 0.54428 0.16867 0.15262 0.30794 0.42115 0.30794 0.5944 0 0.07438-0.07132 0.21974-0.15748 0.32226-0.16115 0.19142-0.21534 0.57255-0.09313 0.64812 0.03447 0.02132 0.06087 0.1039 0.06087 0.18979 0 0.1102-0.04987 0.17937-0.17178 0.23274-0.09478 0.0416-0.2539 0.13255-0.35449 0.20053-0.1496 0.10107-0.29319 0.12402-0.7806 0.12533-0.42638 0.0012-0.60029 0.02504-0.61946 0.08235-0.01467 0.04406-0.1408 0.13693-0.27931 0.20768-0.22601 0.11632-0.32663 0.12692-0.95247 0.0931-1.3272-0.07168-1.3567-0.08149-1.4574-0.32226-0.11807-0.2827-0.11183-0.63078 0.011-0.67676 0.13658-0.05275 0.11513-0.36549-0.04657-0.69824-0.11495-0.2367-0.12778-0.31033-0.06453-0.41178 0.09167-0.1469 0.1034-0.6875 0.01467-0.6875-0.03447 0-0.06453-0.06633-0.06453-0.14681 0-0.09519 0.088-0.21677 0.25065-0.34732 0.19686-0.1582 0.27273-0.27588 0.3509-0.5586 0.05445-0.1973 0.18187-0.56247 0.28646-0.80925 0.20885-0.493 0.21446-0.67001 0.01833-0.69824-0.09625-0.01393-0.19829 0.08171-0.40462 0.36524l-0.28288 0.37956-0.0286-1.0814c-0.02695-0.90354-0.03648-1.0384-0.11458-1.0384-0.06398 0-0.13677-0.03929-0.17912 0.19694-0.06673 0.40458-0.0825 0.71496-0.07883 0.20053 0.0055-0.55842-0.06802-0.6726-0.21485-0.6517-0.10432 0.01485-0.14263 0.07003-0.15748 0.22559-0.0092 0.08657-0.03337 0.26745-0.03575 0.2972-0.05665 0.68172-0.10047-0.15908-0.10028-0.31869 0.00011-0.08116-0.04088-0.0992-0.07168-0.11816-0.10688-0.06494-0.2094 0.11429-0.24348 0.46191-0.01833 0.18531-0.0583 0.52358-0.07517 0.53711-0.01467 0.01357-0.0092-0.36557-0.04657-0.44402-0.08543-0.17314-0.21432-0.13955-0.28286-0.02866-0.0682 0.10996-0.279 1.7855-0.32226 2.5566-0.03868 0.68876-0.05647 0.78038-0.18621 0.90235-0.12943 0.12166-0.14245 0.17846-0.11092 0.52279 0.03245 0.35548 0.02585 0.39276-0.1254 0.53354-0.20058 0.18645-0.2294 0.53073-0.05023 0.62663 0.10248 0.05489 0.12155 0.18055 0.16115 1.0814 0.02457 0.56069 0.06325 1.0561 0.08947 1.1029 0.02622 0.04677 0.27186 0.25434 0.54428 0.45833 0.53554 0.40104 1.4064 0.81686 2.6318 1.2568 0.86319 0.30989 1.1585 0.49944 1.7725 1.1458 0.41332 0.43514 0.44286 0.48875 0.52279 0.89518 0.09625 0.48895 0.09992 0.85611 0.03575 4.6622l-0.02341 0.98068c0.50325 0.08118 1.1641 0.15919 1.6738 0.16345 2.1899-0.0036 4.167-0.75518 5.9136-2.0762 0.011-0.91414 0.01421-3.1425 0.12369-2.8569 0.09882 0.25945 0.44354 1.8756 0.55967 2.3451 0.66144-0.56564 1.2-1.0858 1.6949-1.8018z"/>
<use xlink:href="#j" height="100%" width="100%" stroke="#97afcf" y="0" x="0"/>
<use xlink:href="#j" transform="translate(25)" height="100%" width="100%" stroke="#3e5f8a" y="0" x="0"/>
<path fill="#97afcf" d="m28.575 38.854 7.0711 7.0711-0.70711 0.70711h-7.0711v-7.0711zm9.8995-4.2427 1.4142 1.4142-5.6569 5.6569-1.4142-1.4142zm2.8284 2.8284 1.4142 1.4142-5.6569 5.6569-1.4142-1.4142zm-5.6569-5.6569 1.4142 1.4142-5.6569 5.6569-1.4142-1.4142zm4.9498-4.9498 7.0711 7.0711-3.5356 3.5356-7.0711-7.0711z"/>
<path fill="#97afcf" d="m1 35v5h7.5l2.5-2.5-2.5-2.5zm23 0v5h-7.5l-2.5-2.5 2.5-2.5zm-14 14h5v-7.5l-2.5-2.5-2.5 2.5zm0-23h5v7.5l-2.5 2.5-2.5-2.5z"/>
<path fill="#97afcf" d="m55.05 33 2 15h11l2-15h-15zm4-5v1h-6v2h19v-2h-6v-1h-7z"/>
<g stroke="#97afcf">
<use xlink:href="#a" height="100%" width="100%" y="0" x="0"/>
<use xlink:href="#a" transform="translate(25)" height="100%" width="100%" y="0" x="0"/>
<use xlink:href="#a" transform="translate(50)" height="100%" width="100%" y="0" x="0"/>
</g>
<g fill="#97afcf">
<use xlink:href="#c" height="100%" width="100%" y="0" x="0"/>
<use xlink:href="#g" height="100%" width="100%" y="0" x="0"/>
<use xlink:href="#i" height="100%" width="100%" y="0" x="0"/>
</g>
<g stroke="#3e5f8a">
<use xlink:href="#a" transform="translate(0,25)" height="100%" width="100%" y="0" x="0"/>
<use xlink:href="#a" transform="translate(25,25)" height="100%" width="100%" y="0" x="0"/>
<use xlink:href="#a" transform="translate(50,25)" height="100%" width="100%" y="0" x="0"/>
</g>
<g fill="#3e5f8a" transform="translate(0,25)">
<use xlink:href="#c" height="100%" width="100%" y="0" x="0"/>
<use xlink:href="#g" height="100%" width="100%" y="0" x="0"/>
<use xlink:href="#i" height="100%" width="100%" y="0" x="0"/>
</g>
<g stroke-width="1.5" fill="none">
<path d="m80 5 15 15m-15 0 15-15" stroke="#3e5f8a"/>
<path d="m55 20 15-15m-15 0 15 15" stroke="#97afcf"/>
<g filter="url(#l)" stroke-opacity="0.63">
<path d="m80.5 5.2 15 15m-15 0 15-15" stroke="#3e5f8a"/>
<path d="m55.5 20.2 15-15m-15 0 15 15" stroke="#97afcf"/>
</g>
</g>
<path d="m82.5 80v40m5 0v-40m5 0v40" stroke="#97afcf"/>
<path fill-rule="evenodd" fill="#97afcf" d="m85 30 3 7.5-3 7.5h5l3-7.5-3-7.5z"/>
<path fill-rule="evenodd" fill="#97afcf" d="m58 59h7v11h2v3h-9v-3h2v-8h-2zm2-7h5v5h-5z"/>
<path fill="#97afcf" d="m1 10h23v5h-23zm0 9h23v5h-23zm0-18h23v5h-23z"/>
<use xlink:href="#k" height="100%" width="100%" y="0" x="0" fill="#97afcf"/>
<use xlink:href="#k" transform="translate(25)" height="100%" width="100%" y="0" x="0" fill="#3e5f8a"/>
<path fill-rule="evenodd" fill="#efdc76" d="m97 62.5a9.5 9.5 0 0 1 -9.5 9.5 9.5 9.5 0 0 1 -9.5 -9.5 9.5 9.5 0 0 1 9.5 -9.5 9.5 9.5 0 0 1 9.5 9.5zm2 0c0 6.351-5.149 11.5-11.5 11.5s-11.5-5.149-11.5-11.5 5.149-11.5 11.5-11.5 11.5 5.149 11.5 11.5z"/>
<path d="m106 44 5.5-5.5m-5.5-0.5v6h6m7-13-5.5 5.5m-0.5-5.5h6v6m4 3v8h-8m-5 0h-8v-8m13-13h8v8m-21 0v-8h8" stroke="#97afcf" stroke-width="2" fill="none"/>
</svg>
