<svg xmlns:rdf="http://www.w3.org/1999/02/22-rdf-syntax-ns#" xmlns="http://www.w3.org/2000/svg" height="16" width="240" version="1.1" xmlns:cc="http://creativecommons.org/ns#" xmlns:xlink="http://www.w3.org/1999/xlink" viewBox="0 0 240 16" xmlns:dc="http://purl.org/dc/elements/1.1/"><g fill="#97afcf"><path d="m18.611 1.0003c-0.08712 0.012356-0.11777 0.057399-0.1302 0.18664-0.0075 0.071419-0.03048 0.22375-0.03252 0.24839-0.04728 0.56665-0.08244-0.13161-0.08228-0.26421 0.000116-0.067219-0.03392-0.082618-0.05971-0.099418-0.08944-0.054599-0.17689 0.093818-0.20538 0.38225-0.01502 0.15401-0.04728 0.43727-0.06144 0.44862-0.01238 0.01124-0.0046-0.3058-0.03796-0.37105-0.07156-0.14393-0.17893-0.11621-0.23621-0.023799-0.05692 0.091018-0.23319 1.4845-0.26932 2.1254-0.03236 0.57239-0.04829 0.64954-0.1568 0.75091-0.10815 0.10082-0.119 0.14631-0.09272 0.43251 0.02708 0.29544 0.02068 0.32876-0.10606 0.44568-0.16765 0.15499-0.18946 0.44063-0.03968 0.52044 0.08572 0.046199 0.0994 0.14939 0.13248 0.89807 0.02068 0.46598 0.05552 0.87903 0.07732 0.91781 0.02192 0.039199 0.22711 0.21031 0.45476 0.37987 0.44752 0.33324 1.1747 0.6795 2.1988 1.0452 0.72131 0.25763 0.96603 0.41571 1.4791 0.95296 0.34541 0.36166 0.37252 0.40647 0.43931 0.74433 0.08028 0.40633 0.08227 0.70989 0.0287 3.8732l-0.007 0.406h6.349c-0.01021-0.39358-0.04184-0.10362-0.05288-0.97494-0.03289-2.5597-0.01358-2.9499 0.1281-2.5799 0.20077 0.5245 0.42806 1.4977 0.76163 3.2496 0.02768 0.14519 0.07108 0.20022 0.10377 0.30523h1.8059v-1.7983l-0.24725-0.0434-0.24725-0.0462-0.06408-0.46766c-0.116-0.856-0.173-1.104-0.468-2.041-0.219-0.6973-0.336-1.1938-0.465-1.9786-0.095-0.5764-0.198-1.0958-0.23-1.1549-0.059-0.1092-0.651-0.6178-1.38-1.1857-0.35-0.2732-0.416-0.3518-0.512-0.6116-0.062-0.1629-0.164-0.3418-0.23-0.3923-0.1814-0.14281-0.13352-0.4699 0.1015-0.69701 0.16415-0.15821 0.17661-0.19924 0.17661-0.4874 0-0.30076-0.0075-0.32106-0.22076-0.52478-0.1225-0.11761-0.30518-0.36195-0.40612-0.54411-0.23997-0.43392-0.64902-0.84094-1.0311-1.0276-0.4163-0.20344-1.0111-0.21129-1.4083-0.0196-0.39495 0.19-0.77444 0.6081-1.0221 1.1242-0.11654 0.24293-0.23855 0.44134-0.26932 0.44134-0.0308 0-0.12372 0.047599-0.20751 0.10782-0.14245 0.10082-0.15225 0.13021-0.15225 0.46108 0 0.29292 0.01912 0.37007 0.11042 0.45226 0.14087 0.12741 0.25607 0.35004 0.25607 0.49398 0 0.061615-0.05808 0.18272-0.1302 0.26785-0.13457 0.15905-0.18165 0.47522-0.07947 0.53795 0.02891 0.0182 0.05288 0.089614 0.05288 0.16031 0 0.091014-0.04168 0.14883-0.1435 0.19322-0.07931 0.034999-0.21395 0.11061-0.29802 0.16689-0.12494 0.084014-0.24396 0.10221-0.65125 0.10361-0.35631 0.0009801-0.50274 0.021-0.51877 0.068615-0.01234 0.036399-0.11812 0.11481-0.234 0.17347-0.18887 0.096614-0.27196 0.10361-0.79493 0.075614-1.1091-0.060215-1.1323-0.065815-1.2164-0.26533-0.09868-0.23495-0.09644-0.52618 0.004-0.56441 0.11427-0.043399 0.09768-0.30356-0.03748-0.58009-0.09591-0.19673-0.10571-0.25637-0.05288-0.34066 0.07667-0.12181 0.08524-0.57309 0.01109-0.57309-0.02891 0-0.05288-0.053199-0.05288-0.12041 0-0.078418 0.07388-0.18132 0.20973-0.28984 0.1645-0.13161 0.22606-0.22837 0.2914-0.46332 0.04572-0.16395 0.1533-0.46682 0.24062-0.67194 0.17447-0.40969 0.1797-0.55839 0.0154-0.58191-0.08028-0.011464-0.16764 0.067219-0.33996 0.303l-0.23402 0.317-0.0243-0.90045c-0.0224-0.75091-0.03252-0.86223-0.09768-0.86223-0.05352 0-0.11252-0.032199-0.14787 0.16465-0.05568 0.33632-0.06927 0.59227-0.06612 0.16465 0.0031-0.46416-0.056-0.55755-0.17881-0.54019z"/><g fill-rule="evenodd"><ellipse rx="2.5926" ry="2.5917" cy="9.7083" cx="3.5926"/><ellipse rx="2.5926" ry="2.5917" cy="9.7083" cx="12.407"/><ellipse rx="2.5926" ry="2.5917" cy="7.8942" cx="6.1852"/><ellipse rx="3.5259" ry="3.5247" cy="7.1167" cx="9.8148"/><rect height="2.5917" width="8.8148" y="9.7083" x="3.5926"/></g></g><g stroke="#3e5f8a"><g stroke-width="2.8"><path d="m34.4 13.6v-5.6"/><path d="m40 5.2v8.4"/><path d="m45.6 2.4v11.2"/></g><path stroke-width="2.8" d="m50.4 13.6v-5.6"/></g><g stroke="#97afcf"><path stroke-width="2.8" d="m56 5.2v8.4"/><path stroke-width="2.8" d="m61.6 10.8v2.8m0-11.2v7"/><g stroke-width="2.8"><path d="m66.4 13.6v-5.6"/><path d="m72 5.2v8.4"/><path d="m77.6 2.4v11.2"/></g></g><path stroke-width="2.6067" d="m78.038 7.5616-6.5168 6.5168m6.5168 0-6.5168-6.5168" stroke="#3e5f8a"/><path d="m81.875 14.125v-12.25h12.25v12.25z" stroke="#97afcf" stroke-width="1.75" fill="none"/><text style="word-spacing:0px;letter-spacing:0px" xml:space="preserve" font-size="7.7px" y="10.800002" x="82.698013" font-family="sans-serif" line-height="100%" fill="#3e5f8a"><tspan x="82.698013" y="10.800002">EN</tspan></text><path fill="#97afcf" d="m97 6.4783v3.0435h4.5652l1.52-1.5218-1.52-1.5217zm14 0v3.0435h-4.5652l-1.52-1.5218 1.52-1.5217zm-8.52 8.5217h3.0435v-4.5652l-1.52-1.522-1.52 1.522zm0-14h3.0435v4.5652l-1.52 1.5218-1.52-1.5218z"/><path d="m113.48 10.435 1.2291 1.5364 2.4582-3.0728m-3.6873-4.6091 1.2291 1.5364 2.4582-3.0728m9.83 9.8323h-9.2183m9.22-3.0723h-9.2183m9.22-3.0728h-9.2183m9.22-3.0727h-9.2183" stroke="#97afcf" stroke-width="1.2291" fill="none"/><path fill="#97afcf" d="m129.5 9.5 5 5l-0.5 0.5h-5v-5zm7-3 1 1-4 4-1-1zm2 2 1 1-4 4-1-1zm-4-4 1 1-4 4-1-1zm3.5-3.5001 5 5-2.5 2.5-5-5z"/><path fill="#97afcf" d="m146.75 4.5 1.4 10.5h7.7l1.4-10.5h-10.5zm2.8-3.5v0.7h-4.2v1.4h13.3v-1.4h-4.2v-0.7h-4.9z"/><path id="a" d="m161 9.4h2.24m0-2.8h-2.24m2.24-2.24h-2.24m2.24 7.28h-2.24m11.76-2.24h2.24m0-2.8h-2.24m2.24-2.24h-2.24m2.24 7.28h-2.24m-6.16 1.12v2.24m2.8 0v-2.24m2.24 2.24v-2.24m-7.28 2.24v-2.24m2.24-11.76v2.24m2.8 0v-2.24m2.24 2.24v-2.24m-7.28 2.24v-2.24" stroke="#97afcf" stroke-width="1.12" fill="none"/><path fill-rule="evenodd" fill="#97afcf" d="m164.92 7.16v1.68h1.68l0.84-0.84-0.84-0.84zm6.16 0v1.68h-1.68l-0.84-0.84 0.84-0.84zm-3.92 3.92h1.68v-1.68l-0.84-0.84-0.84 0.84zm0-6.16h1.68v1.68l-0.84 0.84-0.84-0.84zm-3.36-1.12h8.4v8.4h-8.4z"/><use xlink:href="#a" transform="translate(16)" height="100%" width="100%" y="0" x="0"/><use xlink:href="#a" transform="translate(32)" height="100%" width="100%" y="0" x="0"/><path fill-rule="evenodd" fill="#97afcf" d="m182.04 4.36-1.68 1.68h1.12v2.8h-0.56v2.24h2.24v-0.56h2.8v1.12l1.68-1.68-1.68-1.68v1.12h-2.8v-0.56h-0.56v-2.8h1.12zm-2.24-0.56h8.4v8.4h-8.4z"/><path fill-rule="evenodd" fill="#97afcf" d="m197.1 8.669 2.2274 2.2274-0.22274 0.22274h-2.2274v-2.2274zm3.1184-1.3364 0.44548 0.44548-1.7819 1.7819-0.44548-0.44548zm0.89096 0.89096 0.44547 0.44548-1.7819 1.7819-0.44548-0.44547zm-1.7819-1.7819 0.44548 0.44548-1.7819 1.7819-0.44548-0.44548zm1.5592-1.5592 2.2274 2.2274-1.1137 1.1137-2.2274-2.2274zm-5.09-1.0825h8.4v8.4h-8.4z"/></svg>