<svg xmlns:rdf="http://www.w3.org/1999/02/22-rdf-syntax-ns#" xmlns="http://www.w3.org/2000/svg" height="64" width="48" version="1.1" xmlns:cc="http://creativecommons.org/ns#" xmlns:dc="http://purl.org/dc/elements/1.1/" viewBox="0 0 48 64"><g fill="#97afcf" fill-rule="evenodd"><path d="m22 26h4v-4h-4z"/><path d="m18 46v-12h12v12z"/><path d="m4.5 38.5h7v3h-7zm-2.5 7.5v-12h12v12z"/><path d="m41 41v5h5v-5zm-7 0v5h5v-5zm0-7v5h5v-5z"/><path d="m9 23h4v-4h-4zm-6 2v4h4v-4zm6 0v4h4v-4zm-6-2h4v-4h-4z"/><path d="m12 52h-8v8h8zm-10-2h12v12h-12z"/><path d="m18 50v12h12v-8.49l-2 2.678v3.812h-8v-8h6.135l1.496-2h-9.631z"/></g><path d="m21 53 3 5.2 6.5-8.7" stroke="#97afcf" stroke-width="2" fill="none"/><circle fill-rule="evenodd" cx="8" cy="8" r="4" fill="#97afcf"/><path d="m24 3-5 10h10l-5-10z" fill-rule="evenodd" fill="#97afcf"/></svg>