<?xml version="1.0" encoding="UTF-8" standalone="no"?>
<svg
   xmlns:dc="http://purl.org/dc/elements/1.1/"
   xmlns:cc="http://creativecommons.org/ns#"
   xmlns:rdf="http://www.w3.org/1999/02/22-rdf-syntax-ns#"
   xmlns:svg="http://www.w3.org/2000/svg"
   xmlns="http://www.w3.org/2000/svg"
   xmlns:xlink="http://www.w3.org/1999/xlink"
   xmlns:sodipodi="http://sodipodi.sourceforge.net/DTD/sodipodi-0.dtd"
   xmlns:inkscape="http://www.inkscape.org/namespaces/inkscape"
   height="16"
   width="240"
   version="1.1"
   viewBox="0 0 240 16"
   id="svg2"
   inkscape:version="0.91 r13725"
   sodipodi:docname="lib-help.svg">
  <metadata
     id="metadata20">
    <rdf:RDF>
      <cc:Work
         rdf:about="">
        <dc:format>image/svg+xml</dc:format>
        <dc:type
           rdf:resource="http://purl.org/dc/dcmitype/StillImage" />
        <dc:title></dc:title>
      </cc:Work>
    </rdf:RDF>
  </metadata>
  <sodipodi:namedview
     pagecolor="#ffffff"
     bordercolor="#666666"
     borderopacity="1"
     objecttolerance="10"
     gridtolerance="10"
     guidetolerance="10"
     inkscape:pageopacity="0"
     inkscape:pageshadow="2"
     inkscape:window-width="1920"
     inkscape:window-height="1017"
     id="namedview18"
     showgrid="true"
     inkscape:zoom="4"
     inkscape:cx="111.79647"
     inkscape:cy="9.9699166"
     inkscape:window-x="-8"
     inkscape:window-y="-8"
     inkscape:window-maximized="1"
     inkscape:current-layer="svg2"
     borderlayer="false"
     inkscape:showpageshadow="true">
    <inkscape:grid
       type="xygrid"
       id="grid8080"
       spacingx="1"
       spacingy="1"
       empspacing="4" />
  </sodipodi:namedview>
  <defs
     id="defs4">
    <path
       id="a"
       d="m 0.15,1.25 0,-0.8 0.8,0 0,0.8 z"
       inkscape:connector-curvature="0"
       style="fill:none;stroke-width:0.1" />
    <filter
       id="b"
       style="color-interpolation-filters:sRGB"
       height="1.1"
       width="1.1"
       y="-0.050000001"
       x="-0.050000001">
      <feGaussianBlur
         stdDeviation="0.018"
         id="feGaussianBlur8" />
    </filter>
  </defs>
  <path
     inkscape:connector-curvature="0"
     d="m 18.610554,1.0003375 c -0.08712,0.012356 -0.117769,0.057399 -0.130197,0.186644 -0.0075,0.071419 -0.03048,0.2237475 -0.03252,0.2483902 -0.04728,0.5666507 -0.08244,-0.1316143 -0.08228,-0.2642119 1.16e-4,-0.067219 -0.03392,-0.082618 -0.05971,-0.099418 -0.08944,-0.054599 -0.17689,0.093818 -0.205375,0.3822463 -0.01502,0.1540137 -0.04728,0.437274 -0.06144,0.4486158 -0.01238,0.01124 -0.0046,-0.3057985 -0.03796,-0.3710455 -0.07156,-0.1439342 -0.178932,-0.1162148 -0.236207,-0.023799 -0.05692,0.091018 -0.233186,1.4845198 -0.269321,2.125422 -0.03236,0.5723896 -0.04829,0.6495407 -0.156797,0.7509114 -0.108151,0.1008182 -0.118997,0.1463139 -0.09272,0.4325145 0.02708,0.2954366 0.02068,0.3287613 -0.106064,0.4456759 -0.167647,0.1549937 -0.189464,0.440634 -0.03968,0.5204445 0.08572,0.046199 0.0994,0.1493937 0.132479,0.8980712 0.02068,0.4659771 0.05552,0.8790283 0.07732,0.9178144 0.02192,0.039199 0.227107,0.2103064 0.454758,0.3798669 0.447521,0.3332408 1.174713,0.6795031 2.198766,1.0452288 0.721314,0.2576323 0.966028,0.4157111 1.479099,0.9529586 0.345407,0.3616645 0.372515,0.4064685 0.43931,0.7443335 0.08028,0.406329 0.08227,0.709887 0.0287,3.873232 L 21.904272,15 28.25348,15 c -0.01021,-0.393584 -0.04184,-0.10362 -0.05288,-0.974941 -0.03289,-2.559714 -0.01358,-2.949912 0.128097,-2.579944 0.200772,0.524502 0.428056,1.497666 0.761633,3.249639 0.02768,0.145192 0.07108,0.200222 0.103767,0.305234 l 1.805875,0 0,-1.798285 -0.247251,-0.0434 -0.247251,-0.0462 -0.06408,-0.467661 C 30.325084,11.78754 30.268211,11.540269 29.973378,10.602741 29.754178,9.9057332 29.636861,9.4092329 29.507574,8.624352 29.412726,8.0480402 29.309847,7.5285755 29.277998,7.4694882 29.219199,7.3602734 28.627082,6.8517322 27.898259,6.2838216 27.547972,6.0106483 27.482436,5.9319579 27.385663,5.6722257 27.324417,5.509252 27.221516,5.330443 27.156104,5.2798974 c -0.181402,-0.1428141 -0.133523,-0.4698989 0.1015,-0.6970068 0.164147,-0.1582137 0.176607,-0.1992447 0.176607,-0.4873993 0,-0.3007587 -0.0075,-0.3210602 -0.220758,-0.5247848 -0.1225,-0.1176149 -0.305177,-0.3619452 -0.406116,-0.5441069 -0.239972,-0.433915 -0.649024,-0.8409444 -1.031057,-1.0275883 -0.4163,-0.2034445 -1.011056,-0.2112854 -1.408349,-0.0196 -0.394949,0.1900039 -0.774445,0.6080951 -1.022117,1.124199 -0.116545,0.2429292 -0.238553,0.441335 -0.269316,0.441335 -0.0308,0 -0.123723,0.047599 -0.207511,0.1078198 -0.142446,0.1008182 -0.152246,0.1302142 -0.152246,0.4610768 0,0.2929166 0.01912,0.3700655 0.110423,0.4522555 0.140871,0.1274148 0.256071,0.3500443 0.256071,0.4939821 0,0.061615 -0.05808,0.1827232 -0.130197,0.2678536 -0.134572,0.1590538 -0.181646,0.4752185 -0.07947,0.5379458 0.02891,0.0182 0.05288,0.089614 0.05288,0.1603136 0,0.091014 -0.04168,0.1488338 -0.143497,0.1932233 -0.07931,0.034999 -0.21395,0.1106148 -0.29802,0.1668935 -0.124945,0.084014 -0.24396,0.1022144 -0.651246,0.1036145 -0.356309,9.801e-4 -0.502744,0.021 -0.518774,0.068615 -0.01234,0.036399 -0.118122,0.1148147 -0.234005,0.1734733 -0.188872,0.096614 -0.271962,0.1036146 -0.794934,0.075614 -1.109051,-0.060215 -1.132328,-0.065815 -1.216429,-0.2653321 -0.09868,-0.2349492 -0.09644,-0.5261843 0.004,-0.5644106 0.114273,-0.043399 0.09768,-0.303558 -0.03748,-0.5800916 -0.09591,-0.1967251 -0.10571,-0.2563723 -0.05288,-0.3406626 0.07667,-0.1218143 0.08524,-0.5730901 0.01109,-0.5730901 -0.02891,0 -0.05288,-0.053199 -0.05288,-0.1204146 0,-0.078418 0.07388,-0.181322 0.209731,-0.2898368 0.164497,-0.1316145 0.226062,-0.2283675 0.291402,-0.4633179 0.04572,-0.1639535 0.153297,-0.4668165 0.240622,-0.6719434 0.174469,-0.4096914 0.179704,-0.5583886 0.0154,-0.5819111 -0.08028,-0.011464 -0.167644,0.067219 -0.339963,0.3029974 l -0.234015,0.3170016 -0.0243,-0.9004518 c -0.0224,-0.7509122 -0.03252,-0.8622269 -0.09768,-0.8622269 -0.05352,0 -0.112523,-0.032199 -0.147871,0.1646535 -0.05568,0.3363212 -0.06927,0.592273 -0.06612,0.1646535 0.0031,-0.4641569 -0.056,-0.55754875 -0.178812,-0.540187 z"
     style="fill:#97afcf"
     id="path25" />
  <ellipse
     style="fill:#97afcf;fill-rule:evenodd"
     id="circle13"
     cx="3.592593"
     cy="9.708334"
     rx="2.592593"
     ry="2.5916662" />
  <ellipse
     style="fill:#97afcf;fill-rule:evenodd"
     id="circle15"
     cx="12.407407"
     cy="9.708334"
     rx="2.592593"
     ry="2.5916662" />
  <ellipse
     style="fill:#97afcf;fill-rule:evenodd"
     id="circle17"
     cx="6.1851778"
     cy="7.8941655"
     rx="2.592593"
     ry="2.5916662" />
  <ellipse
     style="fill:#97afcf;fill-rule:evenodd"
     id="circle19"
     cx="9.8148212"
     cy="7.1166558"
     rx="3.5259264"
     ry="3.5246663" />
  <rect
     style="fill:#97afcf;fill-rule:evenodd"
     id="rect21"
     x="3.592593"
     height="2.5916662"
     width="8.8148146"
     y="9.708334" />
  <path
     d="m 34.4,13.6 0,-5.6000005"
     id="use8202"
     inkscape:connector-curvature="0"
     style="stroke:#3e5f8a;stroke-width:2.80000019;stroke-miterlimit:4;stroke-dasharray:none" />
  <path
     d="m 40.000001,5.1999993 0,8.4000007"
     id="use8204"
     inkscape:connector-curvature="0"
     style="stroke:#3e5f8a;stroke-width:2.80000019;stroke-miterlimit:4;stroke-dasharray:none" />
  <path
     d="M 45.6,2.3999991 45.6,13.6"
     id="use8206"
     inkscape:connector-curvature="0"
     style="stroke:#3e5f8a;stroke-width:2.80000019;stroke-miterlimit:4;stroke-dasharray:none" />
  <path
     d="m 50.400002,13.6 0,-5.5999996"
     id="use41-5"
     inkscape:connector-curvature="0"
     style="stroke:#3e5f8a;stroke-width:2.79999971" />
  <path
     d="m 56.000003,5.2000006 0,8.3999994"
     id="use43-6"
     inkscape:connector-curvature="0"
     style="stroke:#97afcf;stroke-width:2.79999971" />
  <path
     d="m 61.600002,10.8 0,2.8 m 0,-11.1999992 0,6.9999995"
     id="use45-9"
     inkscape:connector-curvature="0"
     style="stroke:#97afcf;stroke-width:2.79999971" />
  <path
     d="m 66.400001,13.6 0,-5.6"
     id="use49-1"
     inkscape:connector-curvature="0"
     style="stroke:#97afcf;stroke-width:2.79999995" />
  <path
     d="m 72.000001,5.2 0,8.4"
     id="use51-7"
     inkscape:connector-curvature="0"
     style="stroke:#97afcf;stroke-width:2.79999995" />
  <path
     d="m 77.600001,2.3999999 0,11.2000001"
     id="use53-8"
     inkscape:connector-curvature="0"
     style="stroke:#97afcf;stroke-width:2.79999995" />
  <path
     d="m 78.03839,7.5616122 -6.516779,6.5167758 m 6.516779,0 -6.516779,-6.5167758"
     id="use55-5"
     inkscape:connector-curvature="0"
     style="stroke:#3e5f8a;stroke-width:2.60671186" />
  <path
     style="fill:none;fill-rule:evenodd;stroke:#97afcf;stroke-width:1.75;stroke-linecap:butt;stroke-linejoin:miter;stroke-miterlimit:4;stroke-dasharray:none;stroke-opacity:1"
     d="m 81.875001,14.125 0,-12.25 12.25,0 0,12.25 z"
     id="path12760"
     inkscape:connector-curvature="0" />
  <text
     xml:space="preserve"
     style="font-style:normal;font-weight:normal;font-size:7.69999981px;line-height:100%;font-family:sans-serif;letter-spacing:0px;word-spacing:0px;fill:#3e5f8a;fill-opacity:1;stroke:none;stroke-width:1px;stroke-linecap:butt;stroke-linejoin:miter;stroke-opacity:1"
     x="82.698013"
     y="10.800002"
     id="text12762"
     sodipodi:linespacing="100%"><tspan
       sodipodi:role="line"
       id="tspan12764"
       x="82.698013"
       y="10.800002">EN</tspan></text>
  <path
     inkscape:connector-curvature="0"
     style="fill:#97afcf"
     d="m 97,6.4782609 0,3.0434782 4.56522,0 L 103.08696,8 101.56522,6.4782609 Z m 14,0 0,3.0434782 -4.56522,0 L 104.91304,8 106.43478,6.4782609 Z M 102.47826,15 l 3.04348,0 0,-4.565217 L 104,8.9130435 102.47826,10.434783 Z m 0,-14 3.04348,0 0,4.5652174 L 104,7.0869565 102.47826,5.5652174 Z"
     id="path21" />
  <path
     d="m 113.47988,10.434522 1.22911,1.536377 2.4582,-3.0727524 m -3.68731,-4.6091296 1.22911,1.536377 2.4582,-3.072754 M 127,12.585449 l -9.21826,0 M 127,9.5126974 l -9.21826,0 M 127,6.439945 l -9.21826,0 M 127,3.367191 l -9.21826,0"
     id="use15-8"
     inkscape:connector-curvature="0"
     style="fill:none;stroke:#97afcf;stroke-width:1.22910154" />
  <path
     inkscape:connector-curvature="0"
     style="fill:#97afcf"
     d="m 129.5,9.499981 5.00002,5.000017 L 134.00002,15 129,15 129,9.999982 Z m 7,-3.000039 0.99999,0.999989 -4.00003,4.000028 -0.99999,-0.999989 z m 1.99998,1.999978 0.99999,0.99999 -4.00003,4.000028 -0.99999,-0.999989 z m -4.00003,-4.0000278 0.99999,0.9999898 -4.00003,4.000028 -0.99999,-0.99999 z M 137.99998,0.9998586 143,5.999876 140.49996,8.49992 135.49994,3.4999028 Z"
     id="path19" />
  <path
     inkscape:connector-curvature="0"
     style="fill:#97afcf"
     d="m 146.75,4.5 1.4,10.5 7.7,0 1.4,-10.5 -10.5,0 z m 2.8,-3.5 0,0.7 -4.2,0 0,1.4 13.3,0 0,-1.4 -4.2,0 0,-0.7 -4.9,0 z"
     id="path23" />
  <path
     d="m 161,9.4 2.24,0 m 0,-2.8 -2.24,0 m 2.24,-2.24 -2.24,0 m 2.24,7.28 -2.24,0 m 11.76,-2.24 2.24,0 m 0,-2.8 -2.24,0 m 2.24,-2.24 -2.24,0 m 2.24,7.28 -2.24,0 m -6.16,1.12 0,2.24 m 2.8,0 0,-2.24 m 2.24,2.24 0,-2.24 m -7.28,2.24 0,-2.24 M 166.6,1 l 0,2.24 m 2.8,0 0,-2.24 m 2.24,2.24 0,-2.24 m -7.28,2.24 0,-2.24"
     id="use27-8"
     inkscape:connector-curvature="0"
     style="fill:none;stroke:#97afcf;stroke-width:1.12" />
  <path
     d="m 164.92,7.16 0,1.68 1.68,0 L 167.44,8 166.6,7.16 Z m 6.16,0 0,1.68 -1.68,0 L 168.56,8 169.4,7.16 Z m -3.92,3.92 1.68,0 0,-1.68 L 168,8.56 167.16,9.4 Z m 0,-6.16 1.68,0 0,1.68 L 168,7.44 167.16,6.6 Z m -3.36,-1.12 8.4,0 0,8.4 -8.4,0 z"
     id="use35-5"
     inkscape:connector-curvature="0"
     style="fill:#97afcf;fill-rule:evenodd" />
  <use
     x="0"
     y="0"
     xlink:href="#use27-8"
     id="use12815"
     transform="translate(16,0)"
     width="100%"
     height="100%" />
  <use
     x="0"
     y="0"
     xlink:href="#use27-8"
     id="use12817"
     transform="translate(32,0)"
     width="100%"
     height="100%" />
  <path
     d="m 182.04,4.36 -1.68,1.68 1.12,0 0,2.8 -0.56,0 0,2.24 2.24,0 0,-0.56 2.8,0 0,1.12 1.68,-1.68 -1.68,-1.68 0,1.12 -2.8,0 0,-0.56 -0.56,0 0,-2.8 1.12,0 z m -2.24,-0.56 8.4,0 0,8.4 -8.4,0 z"
     id="use37-7"
     inkscape:connector-curvature="0"
     style="fill:#97afcf;fill-rule:evenodd" />
  <path
     d="m 197.10441,8.669032 2.2274,2.2274 -0.22274,0.22274 -2.2274,0 0,-2.227394 z m 3.11836,-1.33644 0.44548,0.44548 -1.78192,1.78192 -0.44548,-0.44548 z m 0.89096,0.89096 0.44547,0.44548 -1.78192,1.78192 -0.44548,-0.445474 z m -1.78192,-1.78192 0.44548,0.44548 -1.78192,1.78192 -0.44548,-0.44548 z m 1.55915,-1.559152 2.2274,2.2274 -1.11367,1.113672 -2.2274,-2.2274 z M 195.8,3.8 l 8.4,0 0,8.4 -8.4,0 z"
     id="use39-6"
     inkscape:connector-curvature="0"
     style="fill:#97afcf;fill-rule:evenodd" />
</svg>
