<svg xmlns:rdf="http://www.w3.org/1999/02/22-rdf-syntax-ns#" xmlns="http://www.w3.org/2000/svg" height="62.5" width="12.5" version="1.1" xmlns:cc="http://creativecommons.org/ns#" xmlns:xlink="http://www.w3.org/1999/xlink" viewBox="0 0 12.5 62.5" xmlns:dc="http://purl.org/dc/elements/1.1/"><defs><path id="g" stroke-width="2" d="m2 10v-4"/><path id="f" stroke-width="2" d="m6 4v6"/><path id="h" stroke-width="2" d="m10 2v8"/><path id="j" stroke-width="2" d="m10 8v2m0-8v5"/><path id="i" stroke-width="2" d="m11 6-5 5m5 0-5-5"/></defs><g fill="#97afcf" transform="matrix(.46296 0 0 .46296 2.3148 33.111)" fill-rule="evenodd"><circle cy="25" cx="0" r="5"/><circle cy="25" cx="17" r="5"/><circle cy="21.5" cx="5" r="5"/><circle cy="20" cx="12" r="6.8"/><rect y="25" width="17" height="5" x="0"/></g><g transform="translate(0,37.5)"><path d="m1.4746 12.547c-0.0772 0.011-0.1042 0.051-0.1152 0.166-0.0062 0.064-0.027 0.199-0.0289 0.221-0.0418 0.504-0.073-0.117-0.0727-0.235 0.0001-0.06-0.0301-0.074-0.0527-0.088-0.0791-0.048-0.1565 0.083-0.1817 0.34-0.0133 0.137-0.0418 0.389-0.05432 0.399-0.01093 0.01-0.00447-0.272-0.03355-0.33-0.06333-0.128-0.1583-0.103-0.20898-0.021-0.05025 0.0813-0.2063 1.3205-0.23828 1.8906-0.02857 0.50921-0.04269 0.5778-0.13867 0.66797-0.09574 0.08994-0.10526 0.1302-0.08203 0.38476 0.02398 0.26282 0.01822 0.29241-0.09375 0.39648-0.14829 0.13784-0.16763 0.39199-0.03516 0.46289 0.07584 0.04059 0.08792 0.13284 0.11719 0.79883 0.01822 0.41452 0.04901 0.78184 0.06836 0.81641s0.20094 0.18707 0.40234 0.33789c0.39592 0.29649 1.0393 0.60441 1.9453 0.92969 0.63816 0.2291 0.85467 0.36978 1.3086 0.84766 0.30559 0.3217 0.32958 0.36163 0.38867 0.66211 0.07109 0.36148 0.07279 0.6315 0.02539 3.4453l-0.0058 0.361h5.6173c-0.0088-0.35007-0.03699-0.09203-0.04687-0.86719-0.02906-2.2769-0.01198-2.624 0.11328-2.2949 0.17764 0.46662 0.37871 1.3322 0.67383 2.8906 0.02445 0.1291 0.06283 0.17807 0.0918 0.27148h1.5977v-1.5996l-0.21875-0.03906-0.21875-0.04102-0.05664-0.41602c-0.10296-0.76254-0.1532-0.9824-0.41407-1.8164-0.19393-0.61998-0.29772-1.0616-0.41211-1.7598-0.084-0.51264-0.17494-0.97469-0.20312-1.0273-0.05201-0.09718-0.57588-0.5495-1.2207-1.0547-0.3099-0.243-0.3679-0.313-0.4535-0.544-0.0541-0.145-0.1453-0.304-0.2031-0.349-0.1605-0.127-0.1182-0.418 0.0898-0.62 0.14517-0.14071 0.15625-0.17721 0.15625-0.43359 0-0.26758-0.0062-0.28556-0.19531-0.4668-0.1084-0.104-0.27-0.322-0.3593-0.484-0.2123-0.386-0.5742-0.748-0.9122-0.914-0.3683-0.181-0.8945-0.188-1.246-0.018-0.34942 0.16908-0.68517 0.54088-0.9043 1-0.10312 0.21606-0.21105 0.39258-0.23828 0.39258s-0.10949 0.04295-0.18359 0.0957c-0.12602 0.08973-0.13477 0.11614-0.13477 0.41016 0 0.26053 0.01684 0.3292 0.09766 0.40234 0.12468 0.11284 0.22656 0.31137 0.22656 0.43945 0 0.05498-0.05145 0.16249-0.11524 0.23828-0.11908 0.14152-0.1607 0.42266-0.07031 0.47852 0.02551 0.01577 0.04687 0.07909 0.04687 0.14258 0 0.08148-0.03693 0.13242-0.12695 0.17188-0.07015 0.03075-0.18929 0.09818-0.26367 0.14844-0.11061 0.07473-0.21583 0.09084-0.57617 0.0918-0.31524 0.000879-0.4448 0.01818-0.45898 0.06055-0.0109 0.03257-0.1045 0.10199-0.20703 0.1543-0.1671 0.086-0.2406 0.092-0.7033 0.067-0.9812-0.053-1.0018-0.058-1.0762-0.236-0.0873-0.209-0.0853-0.468 0.0039-0.502 0.1011-0.039 0.0863-0.27-0.0332-0.516-0.0849-0.175-0.0935-0.228-0.0468-0.303 0.06784-0.1086 0.07544-0.50977 0.0098-0.50977-0.02551 0-0.04687-0.04791-0.04687-0.10742 0-0.07037 0.06543-0.16129 0.18555-0.25781 0.14554-0.11696 0.20001-0.20309 0.25781-0.41211 0.04034-0.14587 0.13561-0.41521 0.21289-0.59766 0.1544-0.36448 0.159-0.4967 0.01367-0.51758-0.07106-0.01021-0.14825 0.05992-0.30078 0.26953l-0.2071 0.282-0.0215-0.801c-0.0198-0.668-0.0287-0.767-0.0864-0.767-0.04733 0-0.099515-0.02816-0.13086 0.14648-0.049232 0.29911-0.061318 0.52681-0.05859 0.14648 0.00296-0.41284-0.049578-0.49593-0.1582-0.48047z" fill="#97afcf"/><text style="word-spacing:0px;letter-spacing:0px" xml:space="preserve" font-size=".5px" y="24.88" x="4.6500001" font-family="sans-serif" line-height="125%" fill="#ffffff"><tspan y="24.88" x="4.67">Space Engineers©</tspan></text></g><g stroke="#3e5f8a" transform="translate(0,-0.5)"><use xlink:href="#g"/><use xlink:href="#f"/><use xlink:href="#h"/></g><g transform="translate(0,12)"><use xlink:href="#g" stroke="#3e5f8a"/><use xlink:href="#f" stroke="#97afcf"/><use xlink:href="#j" stroke="#97afcf"/></g><g stroke="#97afcf" transform="translate(0,24.5)"><use xlink:href="#g"/><use xlink:href="#f"/><use xlink:href="#h"/><use xlink:href="#i" stroke="#3e5f8a"/></g></svg>